<svg width="512" height="512" viewBox="0 0 512 512" fill="none" xmlns="http://www.w3.org/2000/svg">
<circle cx="256" cy="256" r="256" fill="#4B4B4B"/>
<path d="M78.8426 302.311C82.3729 303.42 86.6884 304.94 91.2491 305.69C93.1939 306.014 95.1754 306.194 97.1569 306.18C97.0916 305.964 97.0271 305.748 96.9619 305.531C95.6801 301.172 94.5769 296.633 93.7924 292.916C93.0004 289.206 92.5024 286.331 92.3006 285.294C91.6954 282.261 91.2851 280.071 90.5936 278.529C89.8954 276.98 88.9076 276.073 87.2441 275.568C80.5586 273.94 74.4349 269.574 70.1479 262.997C65.8541 256.463 63.4481 247.752 64.1254 238.416C64.5649 232.552 65.8399 230.002 67.5476 229.512C69.2696 229.022 71.4739 230.571 74.1971 232.776C76.9279 234.988 80.1986 237.833 83.9516 240.102C85.5581 241.082 87.2591 241.954 89.0306 242.646C89.4124 238.611 89.9606 234.541 90.5081 231.212C91.0841 227.661 91.6249 224.952 91.7974 223.965C92.8204 218.187 93.2531 215.658 90.6086 213.641C85.2274 209.939 81.2576 204.016 79.6504 196.762C78.0221 189.536 78.8006 181.013 82.4816 172.981C84.8081 167.938 86.7829 166.115 88.4606 166.252C90.1541 166.382 91.6091 168.485 93.3094 171.338C95.0089 174.205 96.9761 177.815 99.5629 181.078C100.672 182.483 101.897 183.815 103.237 185.018C104.714 181.985 106.256 179.039 107.617 176.582C109.267 173.6 110.628 171.352 111.09 170.524C113.849 165.689 115.03 163.564 113.301 160.928C109.649 155.913 107.955 149.379 108.748 142.412C109.519 135.461 112.804 128.113 118.518 122.068C122.119 118.279 124.432 117.248 125.895 117.875C127.378 118.517 128.063 120.836 128.733 123.92C129.402 127.004 130.087 130.844 131.412 134.561C131.975 136.139 132.659 137.68 133.48 139.15C135.116 137.507 136.715 135.951 138.148 134.611C140.641 132.277 142.615 130.547 143.314 129.907C147.42 126.153 149.199 124.496 148.365 121.456C146.419 115.563 146.808 108.819 149.697 102.437C152.556 96.0542 157.946 90.0602 165.243 86.0612C169.84 83.5532 172.362 83.2727 173.565 84.3317C174.782 85.3899 174.717 87.8117 174.408 90.9527C174.112 93.9489 173.616 97.6089 173.68 101.37C176.158 98.4737 179.544 96.2334 183.348 94.4754C187.8 92.4002 194.464 91.0389 200.221 91.4852C205.992 91.9037 210.739 94.0644 211.848 98.0552C212.973 102.068 210.278 106.261 206.625 109.957C202.937 113.631 198.255 116.895 194.486 118.646C191.122 120.194 187.779 121.354 184.256 121.577C184.415 121.7 184.573 121.822 184.731 121.945C187.801 124.272 190.899 126.217 193.269 128.003C195.639 129.776 197.289 131.375 197.556 132.902C197.823 134.437 196.706 135.863 193.551 137.592C188.543 140.337 183.039 141.425 177.326 141.166C171.635 140.885 165.741 139.271 160.482 136.108C157.788 134.646 155.865 135.921 152.097 139.4C151.455 139.991 149.733 141.699 147.601 144.011C146.384 145.33 145.044 146.85 143.675 148.457C145.123 149.141 146.607 149.732 148.084 150.251C151.715 151.519 155.259 152.42 158.062 153.384C160.872 154.35 162.925 155.351 163.653 156.728C164.373 158.111 163.746 159.818 161.268 162.426C157.335 166.591 152.428 169.313 146.917 170.819C141.413 172.304 135.304 172.563 129.331 171.165C126.312 170.597 124.879 172.397 122.364 176.864C121.932 177.628 120.816 179.782 119.498 182.627C118.41 184.983 117.192 187.829 116.061 190.725C117.876 190.963 119.699 191.049 121.486 191.07C125.528 191.121 129.36 190.832 132.48 190.862C135.592 190.89 137.984 191.215 139.165 192.332C140.354 193.463 140.317 195.35 138.754 198.744C136.284 204.132 132.364 208.441 127.429 211.791C122.487 215.112 116.522 217.482 110.11 218.181C106.919 218.678 106.126 220.962 105.211 226.265C105.06 227.165 104.715 229.687 104.427 232.972C104.153 236.056 103.944 239.801 103.893 243.497C105.731 243.058 107.517 242.489 109.239 241.869C113.244 240.428 116.926 238.742 120.009 237.647C123.086 236.537 125.564 235.99 127.142 236.66C128.727 237.33 129.39 239.182 129.101 243.065C128.655 249.225 126.399 254.909 122.775 260.01C119.151 265.089 114.166 269.628 108.122 272.718C106.638 273.561 105.924 274.606 105.715 276.148C105.499 277.69 105.78 279.707 106.349 282.481C106.536 283.424 107.148 286.025 108.122 289.346C109.08 292.667 110.406 296.702 111.882 300.542C111.962 300.737 112.034 300.925 112.106 301.112C113.712 299.974 115.211 298.727 116.645 297.467C119.988 294.491 122.927 291.422 125.513 289.16C128.099 286.89 130.304 285.399 132.105 285.428C133.928 285.457 135.282 286.991 136.5 290.824C138.459 296.904 138.467 303.202 136.975 309.569C135.47 315.91 132.459 322.314 127.84 327.767C125.657 330.599 126.759 333.034 130.095 337.94C130.664 338.775 132.329 341.038 134.627 343.855C136.917 346.664 139.872 350.015 142.89 353.113C143.373 353.617 143.862 354.107 144.345 354.59C145.39 352.832 146.312 351.016 147.148 349.215C149.115 344.936 150.649 340.75 152.199 337.479C153.733 334.202 155.247 331.846 156.99 331.104C158.748 330.369 160.693 331.248 163.459 334.397C167.883 339.368 170.526 345.377 171.787 352.112C173.019 358.811 172.867 366.254 170.8 373.473C169.921 377.132 172.032 378.984 177.355 382.226C178.263 382.774 180.835 384.215 184.257 385.892C187.68 387.579 191.958 389.466 196.195 391.073C200.431 392.701 206.209 395.186 209.286 396.267C249.363 410.352 297.603 416.432 327.472 438.384C332.126 441.806 322.875 454.976 318.791 453.952C314.706 452.936 285.348 435.322 211.857 415.222C208.773 414.134 193.854 409.271 189.294 407.089C184.719 404.913 180.144 402.434 176.499 400.309C172.854 398.177 170.123 396.412 169.115 395.807C166.182 394.006 164.085 392.687 162.292 392.09C160.506 391.485 159.021 391.592 157.35 392.565C154.151 394.655 150.513 396.11 146.58 396.837C142.646 397.558 138.409 397.544 134.094 396.737C129.786 395.922 125.384 394.316 121.191 391.895C116.991 389.481 112.986 386.261 109.491 382.32C105.097 377.342 104.052 374.302 104.989 372.572C105.933 370.822 108.887 370.303 112.763 369.878C116.646 369.467 121.458 369.114 126.17 367.911C128.158 367.407 130.125 366.752 132.005 365.909C131.508 365.325 131.018 364.734 130.528 364.136C127.473 360.44 124.519 356.5 122.221 353.228C119.923 349.951 118.259 347.357 117.632 346.435C113.994 341.017 112.409 338.647 108.735 339.044C101.582 340.182 93.8434 338.402 86.9929 333.683C83.5781 331.328 80.3936 328.251 77.6921 324.563C74.9831 320.881 72.7571 316.573 71.2301 311.84C69.3281 305.874 69.5869 302.849 71.0576 301.703C72.5464 300.546 75.3131 301.202 78.8426 302.311Z" fill="white"/>
<path d="M300.458 415.241C291.215 411.667 281.454 408.635 271.561 405.817C282.188 402.921 292.713 399.903 302.727 396.387C305.803 395.306 311.581 392.82 315.818 391.192C320.054 389.586 324.333 387.699 327.755 386.012C331.177 384.333 333.749 382.893 334.657 382.346C339.981 379.104 342.092 377.252 341.212 373.593C339.145 366.373 338.994 358.931 340.225 352.231C341.486 345.496 344.13 339.487 348.554 334.516C351.32 331.368 353.265 330.489 355.023 331.224C356.766 331.965 358.279 334.321 359.814 337.599C361.363 340.869 362.904 345.055 364.864 349.335C365.7 351.135 366.622 352.951 367.667 354.709C368.15 354.226 368.639 353.736 369.122 353.232C372.141 350.135 375.094 346.785 377.385 343.974C379.683 341.157 381.348 338.895 381.917 338.059C385.253 333.153 386.362 330.718 384.172 327.887C379.554 322.434 376.542 316.029 375.037 309.689C373.545 303.321 373.553 297.024 375.513 290.943C376.731 287.111 378.085 285.576 379.908 285.548C381.708 285.519 383.913 287.01 386.499 289.279C389.086 291.542 392.025 294.61 395.368 297.586C396.801 298.847 398.3 300.093 399.906 301.232C399.978 301.044 400.05 300.857 400.122 300.662C401.607 296.822 402.932 292.788 403.89 289.466C404.863 286.145 405.475 283.544 405.663 282.6C406.231 279.827 406.512 277.809 406.296 276.267C406.088 274.725 405.374 273.681 403.89 272.838C397.845 269.748 392.86 265.209 389.229 260.13C385.612 255.029 383.35 249.345 382.911 243.185C382.615 239.301 383.286 237.45 384.87 236.78C386.448 236.11 388.926 236.658 392.002 237.767C395.086 238.862 398.767 240.548 402.765 241.989C404.495 242.608 406.281 243.177 408.118 243.617C408.06 239.921 407.859 236.175 407.585 233.091C407.297 229.806 406.951 227.285 406.8 226.384C405.885 221.082 405.093 218.798 401.901 218.301C395.49 217.602 389.525 215.232 384.582 211.911C379.647 208.56 375.728 204.252 373.257 198.864C371.694 195.47 371.658 193.583 372.846 192.451C374.028 191.335 376.419 191.01 379.531 190.981C382.65 190.953 386.484 191.241 390.525 191.19C392.311 191.169 394.134 191.082 395.95 190.845C394.818 187.948 393.601 185.103 392.513 182.747C391.194 179.901 390.078 177.747 389.646 176.984C387.132 172.517 385.698 170.716 382.68 171.285C376.708 172.683 370.598 172.423 365.094 170.939C359.583 169.433 354.676 166.71 350.742 162.546C348.264 159.938 347.637 158.231 348.358 156.847C349.086 155.471 351.138 154.47 353.949 153.504C356.751 152.538 360.296 151.638 363.927 150.37C365.403 149.851 366.888 149.26 368.336 148.577C366.966 146.97 365.627 145.449 364.402 144.131C362.277 141.819 360.555 140.111 359.914 139.52C356.147 136.041 354.223 134.766 351.528 136.227C346.269 139.391 340.376 141.004 334.685 141.285C328.972 141.544 323.468 140.457 318.461 137.712C315.305 135.982 314.189 134.556 314.455 133.022C314.721 131.494 316.371 129.894 318.741 128.123C321.111 126.336 324.21 124.392 327.279 122.064C327.437 121.941 327.596 121.819 327.755 121.697C324.232 121.473 320.889 120.314 317.525 118.765C313.757 117.015 309.074 113.751 305.385 110.076C301.733 106.38 299.038 102.188 300.155 98.1746C301.272 94.1831 306.019 92.0224 311.79 91.6046C317.546 91.1584 324.21 92.5196 328.663 94.5949C332.467 96.3529 335.853 98.5931 338.331 101.49C338.395 97.7291 337.899 94.0691 337.603 91.0721C337.293 87.9311 337.228 85.5094 338.446 84.4511C339.649 83.3914 342.171 83.6726 346.767 86.1806C354.065 90.1789 359.454 96.1729 362.314 102.556C365.203 108.939 365.592 115.683 363.648 121.575C362.812 124.616 364.591 126.273 368.697 130.026C369.396 130.667 371.37 132.396 373.863 134.73C375.297 136.071 376.896 137.627 378.531 139.269C379.353 137.799 380.037 136.258 380.599 134.68C381.925 130.963 382.609 127.123 383.28 124.039C383.949 120.955 384.634 118.636 386.118 117.995C387.581 117.368 389.893 118.398 393.495 122.187C399.208 128.232 402.494 135.581 403.264 142.532C404.056 149.499 402.363 156.033 398.711 161.047C396.981 163.684 398.163 165.809 400.923 170.643C401.384 171.471 402.746 173.72 404.395 176.702C405.757 179.159 407.298 182.105 408.775 185.138C410.115 183.935 411.34 182.603 412.449 181.197C415.036 177.935 417.003 174.324 418.702 171.457C420.403 168.604 421.858 166.501 423.552 166.371C425.23 166.234 427.204 168.057 429.523 173.1C433.212 181.134 433.99 189.656 432.362 196.881C430.755 204.136 426.785 210.059 421.404 213.761C418.761 215.778 419.192 218.307 420.222 224.085C420.388 225.072 420.928 227.781 421.512 231.332C422.052 234.66 422.6 238.731 422.981 242.766C424.754 242.073 426.453 241.202 428.067 240.222C431.814 237.952 435.084 235.107 437.814 232.896C440.538 230.691 442.742 229.142 444.464 229.632C446.172 230.121 447.447 232.672 447.886 238.536C448.563 247.872 446.157 256.582 441.864 263.116C437.577 269.694 431.454 274.059 424.767 275.688C423.103 276.192 422.116 277.099 421.418 278.649C420.726 280.191 420.315 282.381 419.711 285.414C419.509 286.451 419.012 289.326 418.219 293.036C417.435 296.753 416.332 301.292 415.05 305.651C414.984 305.867 414.92 306.083 414.855 306.3C416.836 306.313 418.818 306.133 420.762 305.81C425.323 305.06 429.639 303.54 433.169 302.43C436.698 301.322 439.465 300.666 440.956 301.818C442.426 302.964 442.686 305.99 440.784 311.955C439.257 316.689 437.031 320.996 434.322 324.678C431.62 328.367 428.436 331.443 425.021 333.799C418.17 338.517 410.432 340.297 403.278 339.159C399.605 338.763 398.019 341.133 394.382 346.551C393.755 347.472 392.091 350.067 389.793 353.344C387.495 356.616 384.541 360.555 381.486 364.251C380.996 364.85 380.506 365.441 380.009 366.024C381.889 366.867 383.856 367.523 385.844 368.027C390.555 369.23 395.369 369.583 399.251 369.993C403.127 370.419 406.08 370.938 407.024 372.688C407.961 374.418 406.916 377.457 402.522 382.436C399.028 386.376 395.022 389.597 390.822 392.01C386.629 394.431 382.227 396.038 377.919 396.852C373.604 397.659 369.367 397.674 365.433 396.953C361.5 396.225 357.862 394.77 354.663 392.681C352.992 391.709 351.507 391.601 349.722 392.205C347.928 392.803 345.831 394.122 342.899 395.922C341.89 396.528 339.159 398.292 335.514 400.425C331.869 402.55 327.294 405.029 322.719 407.205C318.296 409.326 304.104 413.973 300.458 415.241Z" fill="white"/>
<path d="M211.953 423.843C223.487 427.026 233.898 430.153 243.27 433.15C210.685 444.886 196.017 453.372 193.222 454.071C189.138 455.094 179.887 441.924 184.548 438.503C192.53 432.631 201.838 427.905 211.953 423.843Z" fill="white"/>
<path d="M304.132 198.823H207.875C207.875 189.457 207.875 182.83 207.875 182.83H304.132C304.132 182.83 304.132 189.457 304.132 198.823Z" fill="white"/>
<path d="M193.121 271.969C186.832 269.26 180.903 265.038 177.02 258.712C174.441 254.519 172.914 249.426 172.935 243.943C172.935 227.302 172.935 214.593 172.935 214.564V207.043H207.876H215.7H296.308H304.132H339.073V214.564C339.073 214.593 339.073 227.302 339.073 243.943C339.094 249.426 337.567 254.52 334.988 258.712C331.097 265.038 325.176 269.26 318.887 271.969C312.568 274.677 305.746 275.931 299.241 275.938V275.138C289.299 296.182 267.528 297.897 267.528 315.699C267.528 338.746 264.148 343.032 287.865 353.205L287.858 368.11H224.143V353.205C247.867 343.032 244.48 338.746 244.48 315.699C244.48 297.897 222.709 296.182 212.76 275.138V275.938C206.262 275.931 199.44 274.677 193.121 271.969ZM316.819 256.111C319.175 254.584 320.969 252.819 322.151 250.859C323.34 248.908 324.017 246.775 324.038 243.943C324.038 235.067 324.038 227.387 324.038 222.085H304.133C304.133 232.783 304.133 243.41 304.133 250.621C304.133 254.288 303.831 257.551 303.398 260.628C308.253 260.052 313.202 258.481 316.819 256.111ZM207.876 250.621C207.876 243.41 207.876 232.783 207.876 222.085H187.971C187.971 227.388 187.971 235.068 187.971 243.943C187.985 246.775 188.67 248.908 189.851 250.86C191.04 252.82 192.834 254.584 195.182 256.111C198.798 258.481 203.748 260.053 208.604 260.629C208.178 257.552 207.876 254.289 207.876 250.621Z" fill="white"/>
</svg>
