<svg width="589" height="587" viewBox="0 0 589 587" fill="none" xmlns="http://www.w3.org/2000/svg">
<rect width="589" height="587" fill="#242755"/>
<path d="M589 438.322C432.9 304.382 131.292 274.345 0 276.069V587H589V438.322Z" fill="url(#paint0_linear_370_776)"/>
<path d="M152.006 179.078C152.585 139.769 187.465 134.759 204.833 137.168C215.929 118.381 245.354 90.6363 274.305 129.942C279.365 136.812 280.818 153.353 277.923 171.851C274.305 194.974 251.871 231.102 264.897 247.722C277.923 264.341 284.436 266.509 327.132 257.115C369.828 247.722 420.485 261.451 421.208 330.818C421.787 386.312 422.168 411.988 421.926 418.25C421.453 430.534 405.079 425.187 393.5 412.469C379.027 396.573 379.954 400.908 379.236 397.295C376.1 407.893 368.206 423.308 356.802 423.308C349.56 423.308 338.711 420.418 338.711 412.469C330.027 422.104 309.909 434.58 298.909 407.411H289.502C287.572 414.155 280.528 427.21 267.792 425.476C255.055 423.742 250.424 417.046 249.7 413.915C247.047 418.25 238.266 426.198 224.372 423.308C210.478 420.418 209.899 388.865 211.346 373.45C200.25 360.926 178.058 327.639 178.058 294.689C178.058 261.74 184.329 227.838 187.465 215.005C169.121 213.119 151.636 204.158 152.006 179.078Z" fill="#2CCF8B"/>
<path d="M216.412 213.039C208.554 214.869 197.871 216.075 187.465 215.005M379.236 397.295C379.954 400.908 379.027 396.573 393.5 412.469C405.079 425.187 421.453 430.534 421.926 418.25C422.168 411.988 421.787 386.312 421.208 330.818C420.485 261.451 369.828 247.722 327.132 257.115C284.436 266.509 277.923 264.341 264.897 247.722C251.871 231.102 274.305 194.974 277.923 171.851C280.818 153.353 279.365 136.812 274.305 129.942C245.354 90.6363 215.929 118.381 204.833 137.168C187.465 134.759 152.585 139.769 152.006 179.078C151.636 204.158 169.121 213.119 187.465 215.005M379.236 397.295V371.283M379.236 397.295C376.1 407.893 368.206 423.308 356.802 423.308C349.56 423.308 338.711 420.418 338.711 412.469M338.711 412.469C330.027 422.104 309.909 434.58 298.909 407.411M338.711 412.469V385.734M338.711 371.283V385.734M298.909 407.411C310.488 405.244 334.658 397.873 338.711 385.734M298.909 407.411H289.502M289.502 407.411V371.283M289.502 407.411C287.572 414.155 280.528 427.21 267.792 425.476C255.055 423.742 250.424 417.046 249.7 413.915M249.7 413.915C247.047 418.25 238.266 426.198 224.372 423.308C210.478 420.418 209.899 388.865 211.346 373.45M249.7 413.915V392.599M249.7 371.283V392.599M211.346 373.45C219.306 380.194 238.122 393.466 249.7 392.599M211.346 373.45C200.25 360.926 178.058 327.639 178.058 294.689C178.058 261.74 184.329 227.838 187.465 215.005" stroke="#36353D" stroke-width="4"/>
<path d="M219.448 376.656C210.06 367.63 190.504 343.004 187.386 316.701C182.518 290.515 179.747 239.987 207.609 247.369C242.437 256.596 240.465 263.552 261.418 290.362C282.371 317.173 318.746 304.803 336.414 312.642C353 320 366.04 335.226 368.5 344.5C375.68 357.409 382.1 381.4 378.5 393C374 407.5 358.934 430.92 350.012 421.997L341.089 418.528L336.414 413.075L333.654 415.553L324.236 421.997L316.801 424.971C313.331 422.823 305.995 418.527 304.409 418.527C302.822 418.527 299.452 411.588 297.965 408.118L290.529 405.64L287.393 396.091L287.393 413.075L275.163 421.997C273.841 423.154 270.603 425.368 268.224 424.971C265.844 424.575 255.336 420.51 252.362 418.528L249.613 408.118L242.448 418.528C237.326 419.684 226.09 421.997 222.125 421.997C218.159 421.997 213.202 406.135 211.22 398.204L213.202 375.299L219.448 376.656Z" fill="#59DBA5"/>
<path d="M216.412 213.039C208.554 214.869 197.871 216.075 187.465 215.005M379.236 394.5C379.954 398.113 379.027 398.103 393.5 414C405.079 426.717 421.453 430.534 421.926 418.25C422.168 411.988 421.787 386.312 421.208 330.818C420.485 261.451 369.828 247.722 327.132 257.115C284.436 266.509 277.923 264.341 264.897 247.722C251.871 231.102 274.305 194.974 277.923 171.851C280.818 153.353 279.365 136.812 274.305 129.942C245.354 90.6363 215.929 118.381 204.833 137.168C187.465 134.759 152.585 139.769 152.006 179.078C151.636 204.158 169.121 213.119 187.465 215.005M379.236 394.5V371.283M379.236 394.5C376.1 405.098 368.206 423.308 356.802 423.308C349.56 423.308 338.711 420.418 338.711 412.469M338.711 412.469C330.027 422.104 309.909 434.58 298.909 407.411M338.711 412.469V385.734M338.711 371.283V385.734M298.909 407.411C310.488 405.244 334.658 397.873 338.711 385.734M298.909 407.411H289.502M289.502 407.411V371.283M289.502 407.411C287.572 414.155 280.528 427.21 267.792 425.476C255.055 423.742 250.424 417.046 249.7 413.915M249.7 413.915C247.047 418.25 238.266 426.198 224.372 423.308C210.478 420.418 209.899 388.865 211.346 373.45M249.7 413.915V392.599M249.7 371.283V392.599M211.346 373.45C219.306 380.194 238.122 393.466 249.7 392.599M211.346 373.45C200.25 360.926 178.058 327.639 178.058 294.689C178.058 261.74 184.329 227.838 187.465 215.005" stroke="#36353D" stroke-width="6"/>
<path d="M218.038 143.286C218.556 134.131 221.279 131.842 222.575 131.842C225.383 131.207 232.167 130.317 236.833 131.842C242.666 133.75 243.314 138.836 243.962 147.1C244.61 155.365 236.833 152.822 231 156.001C225.167 159.18 217.39 154.729 218.038 143.286Z" fill="white"/>
<circle cx="229" cy="146" r="5" fill="#454545"/>
<ellipse cx="170.942" cy="156.615" rx="3.25515" ry="7.02874" transform="rotate(46.1643 170.942 156.615)" fill="#36353D"/>
<g filter="url(#filter0_f_370_776)">
<ellipse cx="227.121" cy="171.731" rx="8.90765" ry="12.8688" transform="rotate(109.743 227.121 171.731)" fill="#F194A0" fill-opacity="0.9"/>
</g>
<path d="M250 139.5C251.2 132.7 245.167 127.667 242 126C244.333 126.167 249.4 126.6 251 129C252.6 131.4 251 137.167 250 139.5Z" fill="#454545"/>
<ellipse cx="204.112" cy="328.216" rx="3.73892" ry="4.98523" transform="rotate(-27.6041 204.112 328.216)" fill="#2CCF8B"/>
<ellipse cx="207.286" cy="345.325" rx="2.20552" ry="3.82889" transform="rotate(-18.0924 207.286 345.325)" fill="#2CCF8B"/>
<ellipse cx="214.548" cy="339.026" rx="2.71549" ry="5.30027" transform="rotate(-39.1393 214.548 339.026)" fill="#2CCF8B"/>
<path d="M192.195 530V492.183H204.012C207.576 492.183 210.384 492.972 212.435 494.551C214.502 496.13 215.535 498.254 215.535 500.923C215.535 503.006 214.909 504.837 213.655 506.416C212.402 507.995 210.75 509.102 208.699 509.736V509.834C211.271 510.127 213.338 511.095 214.9 512.739C216.479 514.383 217.269 516.466 217.269 518.989C217.269 522.277 216.089 524.938 213.729 526.973C211.385 528.991 208.284 530 204.427 530H192.195ZM198.055 496.992V508.052H202.303C204.533 508.052 206.266 507.515 207.503 506.44C208.74 505.366 209.358 503.893 209.358 502.021C209.358 498.669 207.063 496.992 202.474 496.992H198.055ZM198.055 512.886V525.19H203.572C205.965 525.19 207.82 524.637 209.139 523.53C210.457 522.424 211.116 520.885 211.116 518.916C211.116 514.896 208.406 512.886 202.986 512.886H198.055ZM257.883 530H251.022L244.87 519.697C243.666 517.679 242.567 516.304 241.574 515.571C240.598 514.839 239.475 514.473 238.205 514.473H235.031V530H229.172V492.183H241.208C245.131 492.183 248.158 493.07 250.29 494.844C252.438 496.602 253.513 499.1 253.513 502.339C253.513 504.878 252.772 507.051 251.291 508.857C249.81 510.664 247.743 511.925 245.09 512.642V512.739C246.783 513.325 248.679 515.311 250.778 518.696L257.883 530ZM235.031 497.017V509.614H240.231C242.396 509.614 244.121 508.988 245.407 507.734C246.709 506.481 247.36 504.886 247.36 502.949C247.36 498.994 245.017 497.017 240.329 497.017H235.031ZM297.936 530H291.49L287.95 520.161H272.813L269.444 530H262.999L277.257 492.183H283.775L297.936 530ZM286.314 515.303L281.041 500.386C280.846 499.849 280.65 498.896 280.455 497.529H280.284C280.138 498.652 279.934 499.588 279.674 500.337L274.425 515.303H286.314ZM336.06 530H328.271L314.941 513.008C314.453 512.389 314.119 511.86 313.94 511.421H313.818V530H307.959V492.183H313.818V510.005H313.94C314.168 509.549 314.51 509.02 314.966 508.418L327.783 492.183H334.912L319.775 510.298L336.06 530ZM351.21 496.968V496.992V525.19V525.215V530H345.351V525.215V525.19V496.992V496.968V492.183H351.21V496.968ZM363.016 511.567C363.016 505.594 364.684 500.768 368.021 497.09C371.373 493.395 375.89 491.548 381.57 491.548C386.893 491.548 391.165 493.338 394.388 496.919C397.61 500.5 399.222 505.09 399.222 510.688C399.222 516.629 397.578 521.439 394.29 525.117C391.002 528.796 386.559 530.635 380.96 530.635C375.621 530.635 371.292 528.861 367.972 525.312C364.668 521.764 363.016 517.183 363.016 511.567ZM369.168 511.152C369.168 515.319 370.234 518.753 372.366 521.455C374.498 524.141 377.379 525.483 381.009 525.483C384.817 525.483 387.78 524.206 389.896 521.65C392.011 519.079 393.069 515.612 393.069 511.25C393.069 506.79 392.044 503.258 389.993 500.654C387.959 498.05 385.053 496.748 381.277 496.748C377.599 496.748 374.661 498.099 372.464 500.801C370.267 503.503 369.168 506.953 369.168 511.152Z" fill="#36353D"/>
<path d="M192.195 530H191.595V530.6H192.195V530ZM192.195 492.183V491.583H191.595V492.183H192.195ZM212.435 494.551L212.069 495.026L212.07 495.028L212.435 494.551ZM213.655 506.416L214.125 506.789L213.655 506.416ZM208.699 509.736L208.522 509.163L208.099 509.294V509.736H208.699ZM208.699 509.834H208.099V510.37L208.631 510.43L208.699 509.834ZM214.9 512.739L214.465 513.153L214.468 513.155L214.9 512.739ZM213.729 526.973L214.12 527.427L214.12 527.427L213.729 526.973ZM198.055 496.992V496.392H197.455V496.992H198.055ZM198.055 508.052H197.455V508.652H198.055V508.052ZM198.055 512.886V512.286H197.455V512.886H198.055ZM198.055 525.19H197.455V525.79H198.055V525.19ZM209.139 523.53L208.753 523.071L209.139 523.53ZM192.795 530V492.183H191.595V530H192.795ZM192.195 492.783H204.012V491.583H192.195V492.783ZM204.012 492.783C207.493 492.783 210.156 493.554 212.069 495.026L212.801 494.075C210.612 492.39 207.659 491.583 204.012 491.583V492.783ZM212.07 495.028C213.984 496.489 214.935 498.435 214.935 500.923H216.135C216.135 498.072 215.019 495.77 212.799 494.074L212.07 495.028ZM214.935 500.923C214.935 502.876 214.351 504.574 213.185 506.043L214.125 506.789C215.466 505.1 216.135 503.137 216.135 500.923H214.935ZM213.185 506.043C212.012 507.521 210.465 508.562 208.522 509.163L208.877 510.309C211.035 509.641 212.792 508.469 214.125 506.789L213.185 506.043ZM208.099 509.736V509.834H209.299V509.736H208.099ZM208.631 510.43C211.084 510.71 213.014 511.625 214.465 513.153L215.335 512.326C213.662 510.566 211.458 509.544 208.767 509.238L208.631 510.43ZM214.468 513.155C215.927 514.675 216.669 516.603 216.669 518.989H217.869C217.869 516.33 217.031 514.092 215.333 512.324L214.468 513.155ZM216.669 518.989C216.669 522.113 215.556 524.605 213.337 526.518L214.12 527.427C216.621 525.272 217.869 522.441 217.869 518.989H216.669ZM213.337 526.518C211.127 528.421 208.177 529.4 204.427 529.4V530.6C208.391 530.6 211.642 529.561 214.12 527.427L213.337 526.518ZM204.427 529.4H192.195V530.6H204.427V529.4ZM197.455 496.992V508.052H198.655V496.992H197.455ZM198.055 508.652H202.303V507.452H198.055V508.652ZM202.303 508.652C204.625 508.652 206.516 508.092 207.896 506.893L207.11 505.987C206.016 506.937 204.44 507.452 202.303 507.452V508.652ZM207.896 506.893C209.284 505.688 209.958 504.039 209.958 502.021H208.758C208.758 503.747 208.196 505.044 207.11 505.987L207.896 506.893ZM209.958 502.021C209.958 500.193 209.322 498.737 207.991 497.765C206.695 496.818 204.824 496.392 202.474 496.392V497.592C204.713 497.592 206.284 498.004 207.283 498.734C208.247 499.438 208.758 500.497 208.758 502.021H209.958ZM202.474 496.392H198.055V497.592H202.474V496.392ZM197.455 512.886V525.19H198.655V512.886H197.455ZM198.055 525.79H203.572V524.59H198.055V525.79ZM203.572 525.79C206.051 525.79 208.063 525.217 209.524 523.99L208.753 523.071C207.578 524.057 205.878 524.59 203.572 524.59V525.79ZM209.524 523.99C210.999 522.752 211.716 521.034 211.716 518.916H210.516C210.516 520.737 209.915 522.095 208.753 523.071L209.524 523.99ZM211.716 518.916C211.716 516.757 210.979 515.052 209.441 513.911C207.937 512.796 205.753 512.286 202.986 512.286V513.486C205.64 513.486 207.521 513.981 208.726 514.875C209.898 515.745 210.516 517.055 210.516 518.916H211.716ZM202.986 512.286H198.055V513.486H202.986V512.286ZM257.883 530V530.6H258.969L258.391 529.681L257.883 530ZM251.022 530L250.507 530.308L250.682 530.6H251.022V530ZM244.87 519.697L244.355 520.005L244.355 520.005L244.87 519.697ZM241.574 515.571L241.214 516.051L241.218 516.054L241.574 515.571ZM235.031 514.473V513.873H234.431V514.473H235.031ZM235.031 530V530.6H235.631V530H235.031ZM229.172 530H228.572V530.6H229.172V530ZM229.172 492.183V491.583H228.572V492.183H229.172ZM250.29 494.844L249.906 495.305L249.91 495.308L250.29 494.844ZM245.09 512.642L244.933 512.062L244.49 512.182V512.642H245.09ZM245.09 512.739H244.49V513.166L244.894 513.306L245.09 512.739ZM250.778 518.696L250.268 519.013L250.27 519.016L250.778 518.696ZM235.031 497.017V496.417H234.431V497.017H235.031ZM235.031 509.614H234.431V510.214H235.031V509.614ZM245.407 507.734L244.991 507.302L244.988 507.305L245.407 507.734ZM257.883 529.4H251.022V530.6H257.883V529.4ZM251.538 529.692L245.385 519.39L244.355 520.005L250.507 530.308L251.538 529.692ZM245.385 519.39C244.17 517.354 243.022 515.894 241.93 515.088L241.218 516.054C242.112 516.714 243.161 518.004 244.355 520.005L245.385 519.39ZM241.934 515.091C240.849 514.278 239.599 513.873 238.205 513.873V515.073C239.35 515.073 240.346 515.4 241.214 516.051L241.934 515.091ZM238.205 513.873H235.031V515.073H238.205V513.873ZM234.431 514.473V530H235.631V514.473H234.431ZM235.031 529.4H229.172V530.6H235.031V529.4ZM229.772 530V492.183H228.572V530H229.772ZM229.172 492.783H241.208V491.583H229.172V492.783ZM241.208 492.783C245.048 492.783 247.919 493.651 249.906 495.305L250.674 494.383C248.397 492.488 245.214 491.583 241.208 491.583V492.783ZM249.91 495.308C251.895 496.932 252.913 499.246 252.913 502.339H254.113C254.113 498.953 252.982 496.271 250.67 494.379L249.91 495.308ZM252.913 502.339C252.913 504.752 252.212 506.787 250.827 508.477L251.755 509.238C253.332 507.314 254.113 505.004 254.113 502.339H252.913ZM250.827 508.477C249.438 510.171 247.488 511.373 244.933 512.062L245.246 513.221C247.998 512.478 250.181 511.157 251.755 509.238L250.827 508.477ZM244.49 512.642V512.739H245.69V512.642H244.49ZM244.894 513.306C245.614 513.556 246.433 514.125 247.348 515.082C248.257 516.035 249.232 517.341 250.268 519.013L251.288 518.38C250.225 516.666 249.202 515.287 248.215 514.254C247.233 513.225 246.258 512.509 245.286 512.172L244.894 513.306ZM250.27 519.016L257.375 530.319L258.391 529.681L251.286 518.377L250.27 519.016ZM234.431 497.017V509.614H235.631V497.017H234.431ZM235.031 510.214H240.231V509.014H235.031V510.214ZM240.231 510.214C242.518 510.214 244.406 509.548 245.826 508.164L244.988 507.305C243.837 508.427 242.274 509.014 240.231 509.014V510.214ZM245.823 508.167C247.252 506.792 247.96 505.036 247.96 502.949H246.76C246.76 504.736 246.167 506.171 244.991 507.302L245.823 508.167ZM247.96 502.949C247.96 500.85 247.334 499.175 245.989 498.041C244.665 496.924 242.743 496.417 240.329 496.417V497.617C242.603 497.617 244.196 498.098 245.216 498.958C246.215 499.802 246.76 501.093 246.76 502.949H247.96ZM240.329 496.417H235.031V497.617H240.329V496.417ZM297.936 530V530.6H298.801L298.497 529.79L297.936 530ZM291.49 530L290.926 530.203L291.068 530.6H291.49V530ZM287.95 520.161L288.515 519.958L288.372 519.561H287.95V520.161ZM272.813 520.161V519.561H272.385L272.246 519.967L272.813 520.161ZM269.444 530V530.6H269.873L270.012 530.194L269.444 530ZM262.999 530L262.438 529.788L262.132 530.6H262.999V530ZM277.257 492.183V491.583H276.842L276.695 491.971L277.257 492.183ZM283.775 492.183L284.337 491.972L284.191 491.583H283.775V492.183ZM286.314 515.303V515.903H287.163L286.88 515.103L286.314 515.303ZM281.041 500.386L281.607 500.186L281.605 500.181L281.041 500.386ZM280.455 497.529L281.049 497.444L280.975 496.929H280.455V497.529ZM280.284 497.529V496.929H279.757L279.689 497.452L280.284 497.529ZM279.674 500.337L280.24 500.535L280.241 500.534L279.674 500.337ZM274.425 515.303L273.859 515.104L273.579 515.903H274.425V515.303ZM297.936 529.4H291.49V530.6H297.936V529.4ZM292.055 529.797L288.515 519.958L287.386 520.364L290.926 530.203L292.055 529.797ZM287.95 519.561H272.813V520.761H287.95V519.561ZM272.246 519.967L268.877 529.806L270.012 530.194L273.381 520.356L272.246 519.967ZM269.444 529.4H262.999V530.6H269.444V529.4ZM263.56 530.212L277.818 492.394L276.695 491.971L262.438 529.788L263.56 530.212ZM277.257 492.783H283.775V491.583H277.257V492.783ZM283.213 492.393L297.374 530.21L298.497 529.79L284.337 491.972L283.213 492.393ZM286.88 515.103L281.607 500.186L280.475 500.586L285.749 515.503L286.88 515.103ZM281.605 500.181C281.433 499.708 281.244 498.812 281.049 497.444L279.861 497.614C280.056 498.981 280.258 499.989 280.477 500.591L281.605 500.181ZM280.455 496.929H280.284V498.129H280.455V496.929ZM279.689 497.452C279.546 498.55 279.35 499.442 279.107 500.14L280.241 500.534C280.519 499.734 280.729 498.755 280.879 497.607L279.689 497.452ZM279.108 500.138L273.859 515.104L274.991 515.501L280.24 500.535L279.108 500.138ZM274.425 515.903H286.314V514.703H274.425V515.903ZM336.06 530V530.6H337.334L336.522 529.618L336.06 530ZM328.271 530L327.799 530.37L327.98 530.6H328.271V530ZM314.941 513.008L315.413 512.637L315.412 512.636L314.941 513.008ZM313.94 511.421L314.496 511.195L314.344 510.821H313.94V511.421ZM313.818 511.421V510.821H313.218V511.421H313.818ZM313.818 530V530.6H314.418V530H313.818ZM307.959 530H307.359V530.6H307.959V530ZM307.959 492.183V491.583H307.359V492.183H307.959ZM313.818 492.183H314.418V491.583H313.818V492.183ZM313.818 510.005H313.218V510.605H313.818V510.005ZM313.94 510.005V510.605H314.311L314.477 510.273L313.94 510.005ZM314.966 508.418L314.495 508.046L314.487 508.056L314.966 508.418ZM327.783 492.183V491.583H327.492L327.312 491.811L327.783 492.183ZM334.912 492.183L335.373 492.567L336.195 491.583H334.912V492.183ZM319.775 510.298L319.315 509.913L318.995 510.296L319.313 510.68L319.775 510.298ZM336.06 529.4H328.271V530.6H336.06V529.4ZM328.744 529.63L315.413 512.637L314.469 513.378L327.799 530.37L328.744 529.63ZM315.412 512.636C314.939 512.037 314.644 511.559 314.496 511.195L313.385 511.647C313.594 512.162 313.967 512.742 314.47 513.38L315.412 512.636ZM313.94 510.821H313.818V512.021H313.94V510.821ZM313.218 511.421V530H314.418V511.421H313.218ZM313.818 529.4H307.959V530.6H313.818V529.4ZM308.559 530V492.183H307.359V530H308.559ZM307.959 492.783H313.818V491.583H307.959V492.783ZM313.218 492.183V510.005H314.418V492.183H313.218ZM313.818 510.605H313.94V509.405H313.818V510.605ZM314.477 510.273C314.683 509.862 315.001 509.365 315.444 508.78L314.487 508.056C314.019 508.675 313.654 509.236 313.404 509.737L314.477 510.273ZM315.437 508.79L328.254 492.554L327.312 491.811L314.495 508.046L315.437 508.79ZM327.783 492.783H334.912V491.583H327.783V492.783ZM334.452 491.798L319.315 509.913L320.236 510.683L335.373 492.567L334.452 491.798ZM319.313 510.68L335.597 530.382L336.522 529.618L320.238 509.916L319.313 510.68ZM351.21 530V530.6H351.81V530H351.21ZM345.351 530H344.751V530.6H345.351V530ZM345.351 492.183V491.583H344.751V492.183H345.351ZM351.21 492.183H351.81V491.583H351.21V492.183ZM350.61 496.968V496.992H351.81V496.968H350.61ZM350.61 496.992V525.19H351.81V496.992H350.61ZM350.61 525.19V525.215H351.81V525.19H350.61ZM350.61 525.215V530H351.81V525.215H350.61ZM351.21 529.4H345.351V530.6H351.21V529.4ZM345.951 530V525.215H344.751V530H345.951ZM345.951 525.215V525.19H344.751V525.215H345.951ZM345.951 525.19V496.992H344.751V525.19H345.951ZM345.951 496.992V496.968H344.751V496.992H345.951ZM345.951 496.968V492.183H344.751V496.968H345.951ZM345.351 492.783H351.21V491.583H345.351V492.783ZM350.61 492.183V496.968H351.81V492.183H350.61ZM368.021 497.09L367.576 496.687L367.576 496.687L368.021 497.09ZM394.388 496.919L393.942 497.32L394.388 496.919ZM394.29 525.117L393.843 524.717L394.29 525.117ZM367.972 525.312L367.533 525.721L367.534 525.722L367.972 525.312ZM372.366 521.455L371.895 521.827L371.896 521.828L372.366 521.455ZM389.896 521.65L390.358 522.033L390.359 522.032L389.896 521.65ZM389.993 500.654L389.52 501.024L389.522 501.026L389.993 500.654ZM363.616 511.567C363.616 505.711 365.248 501.039 368.465 497.493L367.576 496.687C364.12 500.497 362.416 505.477 362.416 511.567H363.616ZM368.465 497.493C371.688 493.942 376.033 492.148 381.57 492.148V490.948C375.747 490.948 371.059 492.849 367.576 496.687L368.465 497.493ZM381.57 492.148C386.742 492.148 390.846 493.88 393.942 497.32L394.834 496.518C391.485 492.796 387.043 490.948 381.57 490.948V492.148ZM393.942 497.32C397.049 500.773 398.622 505.212 398.622 510.688H399.822C399.822 504.967 398.171 500.226 394.834 496.518L393.942 497.32ZM398.622 510.688C398.622 516.513 397.013 521.17 393.843 524.717L394.737 525.517C398.143 521.707 399.822 516.745 399.822 510.688H398.622ZM393.843 524.717C390.685 528.25 386.414 530.035 380.96 530.035V531.235C386.704 531.235 391.32 529.341 394.737 525.517L393.843 524.717ZM380.96 530.035C375.769 530.035 371.605 528.317 368.41 524.903L367.534 525.722C370.979 529.405 375.474 531.235 380.96 531.235V530.035ZM368.411 524.904C365.226 521.484 363.616 517.057 363.616 511.567H362.416C362.416 517.309 364.109 522.045 367.533 525.721L368.411 524.904ZM368.568 511.152C368.568 515.425 369.663 518.998 371.895 521.827L372.837 521.083C370.805 518.508 369.768 515.213 369.768 511.152H368.568ZM371.896 521.828C374.15 524.666 377.209 526.083 381.009 526.083V524.883C377.55 524.883 374.847 523.615 372.836 521.082L371.896 521.828ZM381.009 526.083C384.966 526.083 388.11 524.747 390.358 522.033L389.433 521.268C387.449 523.664 384.668 524.883 381.009 524.883V526.083ZM390.359 522.032C392.587 519.323 393.669 515.707 393.669 511.25H392.469C392.469 515.516 391.436 518.834 389.432 521.269L390.359 522.032ZM393.669 511.25C393.669 506.702 392.623 503.024 390.465 500.283L389.522 501.026C391.465 503.492 392.469 506.879 392.469 511.25H393.669ZM390.466 500.285C388.301 497.513 385.208 496.148 381.277 496.148V497.348C384.899 497.348 387.617 498.587 389.52 501.024L390.466 500.285ZM381.277 496.148C377.43 496.148 374.317 497.571 371.998 500.422L372.929 501.179C375.006 498.626 377.768 497.348 381.277 497.348V496.148ZM371.998 500.422C369.697 503.252 368.568 506.845 368.568 511.152H369.768C369.768 507.062 370.836 503.753 372.929 501.179L371.998 500.422Z" fill="#36353D"/>
<defs>
<filter id="filter0_f_370_776" x="212.638" y="160.285" width="28.9673" height="22.8918" filterUnits="userSpaceOnUse" color-interpolation-filters="sRGB">
<feFlood flood-opacity="0" result="BackgroundImageFix"/>
<feBlend mode="normal" in="SourceGraphic" in2="BackgroundImageFix" result="shape"/>
<feGaussianBlur stdDeviation="1" result="effect1_foregroundBlur_370_776"/>
</filter>
<linearGradient id="paint0_linear_370_776" x1="294.5" y1="276" x2="115.97" y2="855.419" gradientUnits="userSpaceOnUse">
<stop stop-color="#FFEC88"/>
<stop offset="1" stop-color="#D6B81F"/>
</linearGradient>
</defs>
</svg>
