<svg width="589" height="587" viewBox="0 0 589 587" fill="none" xmlns="http://www.w3.org/2000/svg">
<rect width="589" height="587" rx="100" fill="#242755"/>
<path d="M552.462 410.521C425.331 324.36 234.158 289.811 98.5236 279.561C43.9628 275.437 0 320.048 0 374.764V487C0 542.228 44.7715 587 100 587H489C544.228 587 589 542.229 589 487V484.284C589 455.11 576.613 426.889 552.462 410.521Z" fill="url(#paint0_linear_123_550)"/>
<path d="M152.006 179.078C152.585 139.769 187.465 134.759 204.833 137.168C215.929 118.381 245.354 90.6363 274.305 129.942C279.365 136.812 280.818 153.353 277.923 171.851C274.305 194.974 251.871 231.102 264.897 247.722C277.923 264.341 284.436 266.509 327.132 257.115C369.828 247.722 420.485 261.451 421.208 330.818C421.787 386.312 422.168 411.988 421.926 418.25C421.453 430.534 405.079 425.187 393.5 412.469C379.027 396.573 379.954 400.908 379.236 397.295C376.1 407.893 368.206 423.308 356.802 423.308C349.56 423.308 338.711 420.418 338.711 412.469C330.027 422.104 309.909 434.58 298.909 407.411H289.502C287.572 414.155 280.528 427.21 267.792 425.476C255.055 423.742 250.424 417.046 249.7 413.915C247.047 418.25 238.266 426.198 224.372 423.308C210.478 420.418 209.899 388.865 211.346 373.45C200.25 360.926 178.058 327.639 178.058 294.689C178.058 261.74 184.329 227.838 187.465 215.005C169.121 213.119 151.636 204.158 152.006 179.078Z" fill="#2CCF8B"/>
<path d="M216.412 213.039C208.554 214.869 197.871 216.075 187.465 215.005M379.236 397.295C379.954 400.908 379.027 396.573 393.5 412.469C405.079 425.187 421.453 430.534 421.926 418.25C422.168 411.988 421.787 386.312 421.208 330.818C420.485 261.451 369.828 247.722 327.132 257.115C284.436 266.509 277.923 264.341 264.897 247.722C251.871 231.102 274.305 194.974 277.923 171.851C280.818 153.353 279.365 136.812 274.305 129.942C245.354 90.6363 215.929 118.381 204.833 137.168C187.465 134.759 152.585 139.769 152.006 179.078C151.636 204.158 169.121 213.119 187.465 215.005M379.236 397.295V371.283M379.236 397.295C376.1 407.893 368.206 423.308 356.802 423.308C349.56 423.308 338.711 420.418 338.711 412.469M338.711 412.469C330.027 422.104 309.909 434.58 298.909 407.411M338.711 412.469V385.734M338.711 371.283V385.734M298.909 407.411C310.488 405.244 334.658 397.873 338.711 385.734M298.909 407.411H289.502M289.502 407.411V371.283M289.502 407.411C287.572 414.155 280.528 427.21 267.792 425.476C255.055 423.742 250.424 417.046 249.7 413.915M249.7 413.915C247.047 418.25 238.266 426.198 224.372 423.308C210.478 420.418 209.899 388.865 211.346 373.45M249.7 413.915V392.599M249.7 371.283V392.599M211.346 373.45C219.306 380.194 238.122 393.466 249.7 392.599M211.346 373.45C200.25 360.926 178.058 327.639 178.058 294.689C178.058 261.74 184.329 227.838 187.465 215.005" stroke="#36353D" stroke-width="4"/>
<path d="M219.448 376.655C210.06 367.63 190.504 343.003 187.386 316.701C182.518 290.514 179.747 239.987 207.609 247.369C242.437 256.596 240.465 263.552 261.418 290.362C282.371 317.173 318.746 304.803 336.414 312.642C353 320 366.04 335.226 368.5 344.5C375.68 357.409 382.1 381.4 378.5 393C374 407.5 358.934 430.919 350.012 421.997L341.089 418.527L336.414 413.075L333.654 415.553L324.236 421.997L316.801 424.971C313.331 422.823 305.995 418.527 304.409 418.527C302.822 418.527 299.452 411.588 297.965 408.118L290.529 405.64L287.393 396.091L287.393 413.075L275.163 421.997C273.841 423.154 270.603 425.368 268.224 424.971C265.844 424.575 255.336 420.51 252.362 418.527L249.613 408.118L242.448 418.527C237.326 419.684 226.09 421.997 222.125 421.997C218.159 421.997 213.202 406.135 211.22 398.204L213.202 375.299L219.448 376.655Z" fill="#59DBA5"/>
<path d="M216.412 213.039C208.554 214.869 197.871 216.075 187.465 215.005M379.236 394.5C379.954 398.113 379.027 398.103 393.5 414C405.079 426.717 421.453 430.534 421.926 418.25C422.168 411.988 421.787 386.312 421.208 330.818C420.485 261.451 369.828 247.722 327.132 257.115C284.436 266.509 277.923 264.341 264.897 247.722C251.871 231.102 274.305 194.974 277.923 171.851C280.818 153.353 279.365 136.812 274.305 129.942C245.354 90.6363 215.929 118.381 204.833 137.168C187.465 134.759 152.585 139.769 152.006 179.078C151.636 204.158 169.121 213.119 187.465 215.005M379.236 394.5V371.283M379.236 394.5C376.1 405.098 368.206 423.308 356.802 423.308C349.56 423.308 338.711 420.418 338.711 412.469M338.711 412.469C330.027 422.104 309.909 434.58 298.909 407.411M338.711 412.469V385.734M338.711 371.283V385.734M298.909 407.411C310.488 405.244 334.658 397.873 338.711 385.734M298.909 407.411H289.502M289.502 407.411V371.283M289.502 407.411C287.572 414.155 280.528 427.21 267.792 425.476C255.055 423.742 250.424 417.046 249.7 413.915M249.7 413.915C247.047 418.25 238.266 426.198 224.372 423.308C210.478 420.418 209.899 388.865 211.346 373.45M249.7 413.915V392.599M249.7 371.283V392.599M211.346 373.45C219.306 380.194 238.122 393.466 249.7 392.599M211.346 373.45C200.25 360.926 178.058 327.639 178.058 294.689C178.058 261.74 184.329 227.838 187.465 215.005" stroke="#36353D" stroke-width="6"/>
<path d="M218.038 143.286C218.556 134.131 221.279 131.842 222.575 131.842C225.383 131.207 232.167 130.317 236.833 131.842C242.666 133.75 243.314 138.836 243.962 147.1C244.61 155.365 236.833 152.822 231 156.001C225.167 159.18 217.39 154.729 218.038 143.286Z" fill="white"/>
<circle cx="229" cy="146" r="5" fill="#454545"/>
<ellipse cx="170.942" cy="156.615" rx="3.25515" ry="7.02874" transform="rotate(46.1643 170.942 156.615)" fill="#36353D"/>
<g filter="url(#filter0_f_123_550)">
<ellipse cx="227.121" cy="171.731" rx="8.90765" ry="12.8688" transform="rotate(109.743 227.121 171.731)" fill="#F194A0" fill-opacity="0.9"/>
</g>
<path d="M250 139.5C251.2 132.7 245.167 127.667 242 126C244.333 126.167 249.4 126.6 251 129C252.6 131.4 251 137.167 250 139.5Z" fill="#454545"/>
<ellipse cx="204.112" cy="328.215" rx="3.73892" ry="4.98523" transform="rotate(-27.6041 204.112 328.215)" fill="#2CCF8B"/>
<ellipse cx="207.286" cy="345.325" rx="2.20552" ry="3.82889" transform="rotate(-18.0924 207.286 345.325)" fill="#2CCF8B"/>
<ellipse cx="214.548" cy="339.026" rx="2.71549" ry="5.30027" transform="rotate(-39.1393 214.548 339.026)" fill="#2CCF8B"/>
<path d="M220.994 511.3C223.194 511.833 224.81 512.733 225.844 514C226.91 515.233 227.444 516.867 227.444 518.9C227.444 525.133 222.56 528.25 212.794 528.25C209.927 528.25 206.994 528.167 203.994 528L204.344 518.4L203.994 495.8L215.444 495.75C218.744 495.75 221.31 496.45 223.144 497.85C224.977 499.217 225.894 501.2 225.894 503.8C225.894 505.533 225.46 507.05 224.594 508.35C223.76 509.65 222.56 510.633 220.994 511.3ZM218.944 504.7C218.944 503.233 218.51 502.2 217.644 501.6C216.777 500.967 215.26 500.65 213.094 500.65H210.644L210.494 509.4L215.194 509.55C216.46 509.217 217.394 508.667 217.994 507.9C218.627 507.133 218.944 506.067 218.944 504.7ZM213.944 523.4C216.044 523.4 217.66 522.983 218.794 522.15C219.96 521.317 220.544 520.117 220.544 518.55C220.544 516.183 219.01 514.717 215.944 514.15L210.394 514.25L210.344 517.8L210.494 523.2C211.66 523.333 212.81 523.4 213.944 523.4ZM254.599 515.2C257.199 519.333 259.782 523.067 262.349 526.4L262.249 527.15C260.082 527.917 257.865 528.367 255.599 528.5L254.899 527.95C252.499 523.817 250.549 520.217 249.049 517.15H244.199V517.8L244.499 528H237.699L238.049 518.4L237.699 495.8L250.049 495.75C253.415 495.75 256.015 496.583 257.849 498.25C259.682 499.883 260.599 502.233 260.599 505.3C260.599 507.367 260.065 509.267 258.999 511C257.965 512.7 256.499 514.1 254.599 515.2ZM244.299 511.9L249.249 512.1C252.082 511.133 253.499 509.083 253.499 505.95C253.499 504.25 253.032 502.983 252.099 502.15C251.199 501.283 249.799 500.817 247.899 500.75L244.499 500.95L244.299 511.9ZM297.241 528H290.341L289.541 523.8L288.691 520.8L282.391 520.65L276.841 520.8L275.991 523.45L275.141 528H268.441L279.341 495.8H287.391L297.241 528ZM287.241 515.55L283.441 502.15H282.991L278.591 515.55L282.891 515.65L287.241 515.55ZM320.071 511C323.638 515.967 327.755 521.167 332.421 526.6L332.321 527.35C330.455 527.817 328.255 528.2 325.721 528.5L324.921 528.1C320.555 522.3 316.671 516.733 313.271 511.4L313.171 517.8L313.421 528H306.671L307.021 518.4L306.671 495.8H313.521L313.271 510.75L322.321 498.9L324.171 495.8H331.471L320.071 511ZM347.121 517.8L347.421 528H340.621L340.971 518.4L340.621 495.8H347.521L347.121 517.8ZM372.427 495.35C376.961 495.35 380.444 496.733 382.877 499.5C385.344 502.233 386.577 506.133 386.577 511.2C386.577 516.733 385.244 521 382.577 524C379.911 527 376.144 528.5 371.277 528.5C366.777 528.5 363.294 527.1 360.827 524.3C358.394 521.467 357.177 517.467 357.177 512.3C357.177 506.867 358.494 502.683 361.127 499.75C363.794 496.817 367.561 495.35 372.427 495.35ZM371.827 500.8C369.161 500.8 367.227 501.633 366.027 503.3C364.827 504.967 364.227 507.683 364.227 511.45C364.227 515.75 364.811 518.817 365.977 520.65C367.177 522.483 369.144 523.4 371.877 523.4C374.544 523.4 376.477 522.567 377.677 520.9C378.877 519.2 379.477 516.433 379.477 512.6C379.477 508.367 378.877 505.35 377.677 503.55C376.511 501.717 374.561 500.8 371.827 500.8Z" fill="#36353D"/>
<path d="M220.994 511.3L220.759 510.748L219.093 511.457L220.852 511.883L220.994 511.3ZM225.844 514L225.379 514.379L225.384 514.386L225.39 514.392L225.844 514ZM203.994 528L203.394 527.978L203.373 528.566L203.96 528.599L203.994 528ZM204.344 518.4L204.943 518.422L204.944 518.406L204.944 518.391L204.344 518.4ZM203.994 495.8L203.991 495.2L203.384 495.203L203.394 495.809L203.994 495.8ZM215.444 495.75V495.15L215.441 495.15L215.444 495.75ZM223.144 497.85L222.78 498.327L222.785 498.331L223.144 497.85ZM224.594 508.35L224.094 508.017L224.089 508.026L224.594 508.35ZM217.644 501.6L217.29 502.084L217.296 502.089L217.302 502.093L217.644 501.6ZM210.644 500.65V500.05H210.054L210.044 500.64L210.644 500.65ZM210.494 509.4L209.894 509.39L209.884 509.981L210.475 510L210.494 509.4ZM215.194 509.55L215.175 510.15L215.262 510.152L215.346 510.13L215.194 509.55ZM217.994 507.9L217.531 507.518L217.526 507.524L217.521 507.53L217.994 507.9ZM218.794 522.15L218.445 521.662L218.438 521.667L218.794 522.15ZM215.944 514.15L216.053 513.56L215.993 513.549L215.933 513.55L215.944 514.15ZM210.394 514.25L210.383 513.65L209.802 513.661L209.794 514.242L210.394 514.25ZM210.344 517.8L209.744 517.792L209.744 517.804L209.744 517.817L210.344 517.8ZM210.494 523.2L209.894 523.217L209.908 523.737L210.426 523.796L210.494 523.2ZM220.852 511.883C222.973 512.397 224.455 513.247 225.379 514.379L226.309 513.621C225.166 512.22 223.414 511.269 221.135 510.717L220.852 511.883ZM225.39 514.392C226.341 515.492 226.844 516.974 226.844 518.9H228.044C228.044 516.759 227.48 514.975 226.298 513.608L225.39 514.392ZM226.844 518.9C226.844 521.83 225.712 523.968 223.458 525.407C221.159 526.874 217.633 527.65 212.794 527.65V528.85C217.722 528.85 221.52 528.067 224.104 526.418C226.734 524.74 228.044 522.203 228.044 518.9H226.844ZM212.794 527.65C209.939 527.65 207.016 527.567 204.027 527.401L203.96 528.599C206.971 528.766 209.915 528.85 212.794 528.85V527.65ZM204.593 528.022L204.943 518.422L203.744 518.378L203.394 527.978L204.593 528.022ZM204.944 518.391L204.594 495.791L203.394 495.809L203.744 518.409L204.944 518.391ZM203.996 496.4L215.446 496.35L215.441 495.15L203.991 495.2L203.996 496.4ZM215.444 496.35C218.667 496.35 221.087 497.035 222.78 498.327L223.508 497.373C221.533 495.865 218.82 495.15 215.444 495.15V496.35ZM222.785 498.331C224.444 499.568 225.294 501.36 225.294 503.8H226.494C226.494 501.04 225.51 498.866 223.502 497.369L222.785 498.331ZM225.294 503.8C225.294 505.428 224.888 506.826 224.095 508.017L225.093 508.683C226.032 507.274 226.494 505.638 226.494 503.8H225.294ZM224.089 508.026C223.327 509.214 222.226 510.123 220.759 510.748L221.229 511.852C222.894 511.143 224.194 510.086 225.099 508.674L224.089 508.026ZM219.544 504.7C219.544 503.12 219.072 501.859 217.985 501.107L217.302 502.093C217.949 502.541 218.344 503.347 218.344 504.7H219.544ZM217.998 501.116C216.966 500.362 215.28 500.05 213.094 500.05V501.25C215.241 501.25 216.588 501.571 217.29 502.084L217.998 501.116ZM213.094 500.05H210.644V501.25H213.094V500.05ZM210.044 500.64L209.894 509.39L211.094 509.41L211.244 500.66L210.044 500.64ZM210.475 510L215.175 510.15L215.213 508.95L210.513 508.8L210.475 510ZM215.346 510.13C216.696 509.775 217.762 509.17 218.466 508.27L217.521 507.53C217.026 508.163 216.224 508.658 215.041 508.97L215.346 510.13ZM218.456 508.282C219.207 507.374 219.544 506.154 219.544 504.7H218.344C218.344 505.979 218.047 506.893 217.531 507.518L218.456 508.282ZM213.944 524C216.112 524 217.873 523.572 219.149 522.633L218.438 521.667C217.448 522.395 215.976 522.8 213.944 522.8V524ZM219.142 522.638C220.483 521.681 221.144 520.289 221.144 518.55H219.944C219.944 519.944 219.438 520.953 218.445 521.662L219.142 522.638ZM221.144 518.55C221.144 517.224 220.708 516.102 219.808 515.241C218.926 514.398 217.65 513.855 216.053 513.56L215.835 514.74C217.304 515.012 218.328 515.486 218.979 516.109C219.613 516.715 219.944 517.51 219.944 518.55H221.144ZM215.933 513.55L210.383 513.65L210.405 514.85L215.955 514.75L215.933 513.55ZM209.794 514.242L209.744 517.792L210.944 517.808L210.994 514.258L209.794 514.242ZM209.744 517.817L209.894 523.217L211.094 523.183L210.944 517.783L209.744 517.817ZM210.426 523.796C211.614 523.932 212.787 524 213.944 524V522.8C212.834 522.8 211.707 522.735 210.562 522.604L210.426 523.796ZM254.599 515.2L254.298 514.681L253.76 514.993L254.091 515.519L254.599 515.2ZM262.349 526.4L262.944 526.479L262.977 526.232L262.824 526.034L262.349 526.4ZM262.249 527.15L262.449 527.716L262.795 527.593L262.844 527.229L262.249 527.15ZM255.599 528.5L255.228 528.972L255.407 529.112L255.634 529.099L255.599 528.5ZM254.899 527.95L254.38 528.251L254.438 528.351L254.528 528.422L254.899 527.95ZM249.049 517.15L249.588 516.886L249.423 516.55H249.049V517.15ZM244.199 517.15V516.55H243.599V517.15H244.199ZM244.199 517.8H243.599V517.809L243.599 517.818L244.199 517.8ZM244.499 528V528.6H245.117L245.099 527.982L244.499 528ZM237.699 528L237.099 527.978L237.077 528.6H237.699V528ZM238.049 518.4L238.648 518.422L238.649 518.406L238.649 518.391L238.049 518.4ZM237.699 495.8L237.696 495.2L237.09 495.202L237.099 495.809L237.699 495.8ZM250.049 495.75V495.15L250.046 495.15L250.049 495.75ZM257.849 498.25L257.445 498.694L257.45 498.698L257.849 498.25ZM258.999 511L258.488 510.686L258.486 510.688L258.999 511ZM244.299 511.9L243.699 511.889L243.688 512.476L244.275 512.5L244.299 511.9ZM249.249 512.1L249.225 512.7L249.337 512.704L249.443 512.668L249.249 512.1ZM252.099 502.15L251.683 502.582L251.691 502.59L251.699 502.598L252.099 502.15ZM247.899 500.75L247.92 500.15L247.892 500.149L247.864 500.151L247.899 500.75ZM244.499 500.95L244.464 500.351L243.909 500.384L243.899 500.939L244.499 500.95ZM254.091 515.519C256.699 519.666 259.294 523.416 261.873 526.766L262.824 526.034C260.271 522.718 257.698 519 255.107 514.881L254.091 515.519ZM261.754 526.321L261.654 527.071L262.844 527.229L262.944 526.479L261.754 526.321ZM262.049 526.584C259.934 527.332 257.773 527.771 255.564 527.901L255.634 529.099C257.958 528.962 260.23 528.501 262.449 527.716L262.049 526.584ZM255.97 528.028L255.27 527.478L254.528 528.422L255.228 528.972L255.97 528.028ZM255.418 527.649C253.022 523.523 251.08 519.936 249.588 516.886L248.51 517.414C250.018 520.497 251.975 524.11 254.38 528.251L255.418 527.649ZM249.049 516.55H244.199V517.75H249.049V516.55ZM243.599 517.15V517.8H244.799V517.15H243.599ZM243.599 517.818L243.899 528.018L245.099 527.982L244.799 517.782L243.599 517.818ZM244.499 527.4H237.699V528.6H244.499V527.4ZM238.298 528.022L238.648 518.422L237.449 518.378L237.099 527.978L238.298 528.022ZM238.649 518.391L238.299 495.791L237.099 495.809L237.449 518.409L238.649 518.391ZM237.701 496.4L250.051 496.35L250.046 495.15L237.696 495.2L237.701 496.4ZM250.049 496.35C253.32 496.35 255.757 497.159 257.445 498.694L258.252 497.806C256.274 496.008 253.511 495.15 250.049 495.15V496.35ZM257.45 498.698C259.125 500.19 259.999 502.359 259.999 505.3H261.199C261.199 502.108 260.24 499.576 258.248 497.802L257.45 498.698ZM259.999 505.3C259.999 507.257 259.495 509.048 258.488 510.686L259.51 511.314C260.636 509.485 261.199 507.476 261.199 505.3H259.999ZM258.486 510.688C257.51 512.294 256.12 513.626 254.298 514.681L254.899 515.719C256.877 514.574 258.421 513.106 259.512 511.312L258.486 510.688ZM244.275 512.5L249.225 512.7L249.273 511.5L244.323 511.3L244.275 512.5ZM249.443 512.668C250.956 512.152 252.135 511.329 252.93 510.179C253.724 509.03 254.099 507.607 254.099 505.95H252.899C252.899 507.426 252.566 508.595 251.943 509.496C251.321 510.396 250.375 511.082 249.055 511.532L249.443 512.668ZM254.099 505.95C254.099 504.143 253.6 502.686 252.498 501.702L251.699 502.598C252.464 503.28 252.899 504.357 252.899 505.95H254.099ZM252.515 501.718C251.465 500.706 249.893 500.22 247.92 500.15L247.878 501.35C249.705 501.414 250.933 501.86 251.683 502.582L252.515 501.718ZM247.864 500.151L244.464 500.351L244.534 501.549L247.934 501.349L247.864 500.151ZM243.899 500.939L243.699 511.889L244.899 511.911L245.099 500.961L243.899 500.939ZM297.241 528V528.6H298.052L297.815 527.824L297.241 528ZM290.341 528L289.752 528.112L289.845 528.6H290.341V528ZM289.541 523.8L290.13 523.688L290.125 523.662L290.118 523.636L289.541 523.8ZM288.691 520.8L289.268 520.636L289.148 520.211L288.705 520.2L288.691 520.8ZM282.391 520.65L282.405 520.05L282.39 520.05L282.375 520.05L282.391 520.65ZM276.841 520.8L276.825 520.2L276.4 520.212L276.27 520.617L276.841 520.8ZM275.991 523.45L275.42 523.267L275.408 523.303L275.401 523.34L275.991 523.45ZM275.141 528V528.6H275.639L275.731 528.11L275.141 528ZM268.441 528L267.873 527.808L267.604 528.6H268.441V528ZM279.341 495.8V495.2H278.911L278.773 495.608L279.341 495.8ZM287.391 495.8L287.965 495.624L287.835 495.2H287.391V495.8ZM287.241 515.55L287.255 516.15L288.03 516.132L287.818 515.386L287.241 515.55ZM283.441 502.15L284.018 501.986L283.895 501.55H283.441V502.15ZM282.991 502.15V501.55H282.557L282.421 501.963L282.991 502.15ZM278.591 515.55L278.021 515.363L277.769 516.131L278.577 516.15L278.591 515.55ZM282.891 515.65L282.877 516.25L282.891 516.25L282.905 516.25L282.891 515.65ZM297.241 527.4H290.341V528.6H297.241V527.4ZM290.93 527.888L290.13 523.688L288.952 523.912L289.752 528.112L290.93 527.888ZM290.118 523.636L289.268 520.636L288.114 520.964L288.964 523.964L290.118 523.636ZM288.705 520.2L282.405 520.05L282.377 521.25L288.677 521.4L288.705 520.2ZM282.375 520.05L276.825 520.2L276.857 521.4L282.407 521.25L282.375 520.05ZM276.27 520.617L275.42 523.267L276.562 523.633L277.412 520.983L276.27 520.617ZM275.401 523.34L274.551 527.89L275.731 528.11L276.581 523.56L275.401 523.34ZM275.141 527.4H268.441V528.6H275.141V527.4ZM269.009 528.192L279.909 495.992L278.773 495.608L267.873 527.808L269.009 528.192ZM279.341 496.4H287.391V495.2H279.341V496.4ZM286.817 495.976L296.667 528.176L297.815 527.824L287.965 495.624L286.817 495.976ZM287.818 515.386L284.018 501.986L282.864 502.314L286.664 515.714L287.818 515.386ZM283.441 501.55H282.991V502.75H283.441V501.55ZM282.421 501.963L278.021 515.363L279.161 515.737L283.561 502.337L282.421 501.963ZM278.577 516.15L282.877 516.25L282.905 515.05L278.605 514.95L278.577 516.15ZM282.905 516.25L287.255 516.15L287.227 514.95L282.877 515.05L282.905 516.25ZM320.071 511L319.591 510.64L319.327 510.992L319.584 511.35L320.071 511ZM332.421 526.6L333.016 526.679L333.052 526.413L332.877 526.209L332.421 526.6ZM332.321 527.35L332.467 527.932L332.862 527.833L332.916 527.429L332.321 527.35ZM325.721 528.5L325.453 529.037L325.614 529.117L325.792 529.096L325.721 528.5ZM324.921 528.1L324.442 528.461L324.527 528.574L324.653 528.637L324.921 528.1ZM313.271 511.4L313.777 511.077L312.703 509.392L312.672 511.391L313.271 511.4ZM313.171 517.8L312.572 517.791L312.571 517.803L312.572 517.815L313.171 517.8ZM313.421 528V528.6H314.036L314.021 527.985L313.421 528ZM306.671 528L306.072 527.978L306.049 528.6H306.671V528ZM307.021 518.4L307.621 518.422L307.622 518.406L307.621 518.391L307.021 518.4ZM306.671 495.8V495.2H306.062L306.072 495.809L306.671 495.8ZM313.521 495.8L314.121 495.81L314.132 495.2H313.521V495.8ZM313.271 510.75L312.672 510.74L312.641 512.564L313.748 511.114L313.271 510.75ZM322.321 498.9L322.798 499.264L322.819 499.237L322.837 499.207L322.321 498.9ZM324.171 495.8V495.2H323.831L323.656 495.493L324.171 495.8ZM331.471 495.8L331.951 496.16L332.671 495.2H331.471V495.8ZM319.584 511.35C323.162 516.333 327.29 521.547 331.966 526.991L332.877 526.209C328.219 520.787 324.114 515.6 320.559 510.65L319.584 511.35ZM331.827 526.521L331.727 527.271L332.916 527.429L333.016 526.679L331.827 526.521ZM332.176 526.768C330.34 527.227 328.167 527.606 325.651 527.904L325.792 529.096C328.343 528.794 330.569 528.407 332.467 527.932L332.176 526.768ZM325.99 527.963L325.19 527.563L324.653 528.637L325.453 529.037L325.99 527.963ZM325.401 527.739C321.042 521.95 317.168 516.396 313.777 511.077L312.766 511.723C316.175 517.071 320.067 522.65 324.442 528.461L325.401 527.739ZM312.672 511.391L312.572 517.791L313.771 517.809L313.871 511.409L312.672 511.391ZM312.572 517.815L312.822 528.015L314.021 527.985L313.771 517.785L312.572 517.815ZM313.421 527.4H306.671V528.6H313.421V527.4ZM307.271 528.022L307.621 518.422L306.422 518.378L306.072 527.978L307.271 528.022ZM307.621 518.391L307.271 495.791L306.072 495.809L306.422 518.409L307.621 518.391ZM306.671 496.4H313.521V495.2H306.671V496.4ZM312.922 495.79L312.672 510.74L313.871 510.76L314.121 495.81L312.922 495.79ZM313.748 511.114L322.798 499.264L321.845 498.536L312.795 510.386L313.748 511.114ZM322.837 499.207L324.687 496.107L323.656 495.493L321.806 498.593L322.837 499.207ZM324.171 496.4H331.471V495.2H324.171V496.4ZM330.991 495.44L319.591 510.64L320.551 511.36L331.951 496.16L330.991 495.44ZM347.121 517.8L346.521 517.789L346.521 517.803L346.521 517.818L347.121 517.8ZM347.421 528V528.6H348.039L348.02 527.982L347.421 528ZM340.621 528L340.021 527.978L339.998 528.6H340.621V528ZM340.971 518.4L341.57 518.422L341.571 518.406L341.571 518.391L340.971 518.4ZM340.621 495.8V495.2H340.011L340.021 495.809L340.621 495.8ZM347.521 495.8L348.121 495.811L348.132 495.2H347.521V495.8ZM346.521 517.818L346.821 528.018L348.02 527.982L347.72 517.782L346.521 517.818ZM347.421 527.4H340.621V528.6H347.421V527.4ZM341.22 528.022L341.57 518.422L340.371 518.378L340.021 527.978L341.22 528.022ZM341.571 518.391L341.221 495.791L340.021 495.809L340.371 518.409L341.571 518.391ZM340.621 496.4H347.521V495.2H340.621V496.4ZM346.921 495.789L346.521 517.789L347.721 517.811L348.121 495.811L346.921 495.789ZM382.877 499.5L382.427 499.896L382.432 499.902L382.877 499.5ZM382.577 524L382.129 523.601V523.601L382.577 524ZM360.827 524.3L360.372 524.691L360.377 524.697L360.827 524.3ZM361.127 499.75L360.683 499.346L360.681 499.349L361.127 499.75ZM366.027 503.3L366.514 503.651L366.027 503.3ZM365.977 520.65L365.471 520.972L365.475 520.979L365.977 520.65ZM377.677 520.9L378.164 521.251L378.168 521.246L377.677 520.9ZM377.677 503.55L377.171 503.872L377.178 503.883L377.677 503.55ZM372.427 495.95C376.831 495.95 380.133 497.288 382.427 499.896L383.328 499.104C380.755 496.178 377.09 494.75 372.427 494.75V495.95ZM382.432 499.902C384.767 502.489 385.977 506.226 385.977 511.2H387.177C387.177 506.041 385.921 501.977 383.323 499.098L382.432 499.902ZM385.977 511.2C385.977 516.642 384.666 520.747 382.129 523.601L383.026 524.399C385.822 521.253 387.177 516.824 387.177 511.2H385.977ZM382.129 523.601C379.6 526.446 376.012 527.9 371.277 527.9V529.1C376.276 529.1 380.221 527.554 383.026 524.399L382.129 523.601ZM371.277 527.9C366.911 527.9 363.607 526.548 361.278 523.903L360.377 524.697C362.981 527.652 366.644 529.1 371.277 529.1V527.9ZM361.283 523.909C358.973 521.22 357.777 517.378 357.777 512.3H356.577C356.577 517.555 357.815 521.713 360.372 524.691L361.283 523.909ZM357.777 512.3C357.777 506.958 359.071 502.938 361.574 500.151L360.681 499.349C357.917 502.428 356.577 506.775 356.577 512.3H357.777ZM361.571 500.154C364.099 497.373 367.688 495.95 372.427 495.95V494.75C367.433 494.75 363.489 496.26 360.683 499.346L361.571 500.154ZM371.827 500.2C369.031 500.2 366.886 501.081 365.54 502.949L366.514 503.651C367.569 502.186 369.29 501.4 371.827 501.4V500.2ZM365.54 502.949C364.227 504.773 363.627 507.649 363.627 511.45H364.827C364.827 507.718 365.427 505.16 366.514 503.651L365.54 502.949ZM363.627 511.45C363.627 515.772 364.208 518.987 365.471 520.972L366.484 520.328C365.414 518.647 364.827 515.728 364.827 511.45H363.627ZM365.475 520.979C366.814 523.024 368.999 524 371.877 524V522.8C369.289 522.8 367.541 521.943 366.479 520.321L365.475 520.979ZM371.877 524C374.673 524 376.819 523.119 378.164 521.251L377.19 520.549C376.136 522.014 374.415 522.8 371.877 522.8V524ZM378.168 521.246C379.478 519.39 380.077 516.467 380.077 512.6H378.877C378.877 516.4 378.277 519.01 377.187 520.554L378.168 521.246ZM380.077 512.6C380.077 508.343 379.48 505.173 378.177 503.217L377.178 503.883C378.274 505.527 378.877 508.39 378.877 512.6H380.077ZM378.184 503.228C376.878 501.176 374.705 500.2 371.827 500.2V501.4C374.416 501.4 376.144 502.257 377.171 503.872L378.184 503.228Z" fill="#36353D"/>
<defs>
<filter id="filter0_f_123_550" x="212.638" y="160.285" width="28.9673" height="22.892" filterUnits="userSpaceOnUse" color-interpolation-filters="sRGB">
<feFlood flood-opacity="0" result="BackgroundImageFix"/>
<feBlend mode="normal" in="SourceGraphic" in2="BackgroundImageFix" result="shape"/>
<feGaussianBlur stdDeviation="1" result="effect1_foregroundBlur_123_550"/>
</filter>
<linearGradient id="paint0_linear_123_550" x1="294.5" y1="276" x2="115.97" y2="855.419" gradientUnits="userSpaceOnUse">
<stop stop-color="#FFEC88"/>
<stop offset="1" stop-color="#D6B81F"/>
</linearGradient>
</defs>
</svg>
