<svg width="1318" height="967" viewBox="0 0 1318 967" fill="none" xmlns="http://www.w3.org/2000/svg">
<rect width="1318" height="967" fill="white"/>
<path d="M433.821 700C443.921 700 451.921 702.95 457.821 708.85C463.721 714.65 466.671 723.4 466.671 735.1V781H447.921V737.5C447.921 730.5 446.371 725.25 443.271 721.75C440.171 718.15 435.721 716.35 429.921 716.35C423.621 716.35 418.571 718.45 414.771 722.65C410.971 726.75 409.071 732.65 409.071 740.35V781H390.321V737.5C390.321 730.5 388.771 725.25 385.671 721.75C382.571 718.15 378.121 716.35 372.321 716.35C365.921 716.35 360.821 718.4 357.021 722.5C353.321 726.6 351.471 732.55 351.471 740.35V781H332.721V700.9H350.571V711.1C353.571 707.5 357.321 704.75 361.821 702.85C366.321 700.95 371.321 700 376.821 700C382.821 700 388.121 701.15 392.721 703.45C397.421 705.65 401.121 708.95 403.821 713.35C407.121 709.15 411.371 705.9 416.571 703.6C421.771 701.2 427.521 700 433.821 700ZM561.431 700.9V768.85C561.431 797.05 547.581 811.15 519.881 811.15C512.581 811.15 505.581 810.15 498.881 808.15C492.281 806.25 486.831 803.45 482.531 799.75L490.931 785.65C494.331 788.55 498.481 790.85 503.381 792.55C508.281 794.25 513.431 795.1 518.831 795.1C527.031 795.1 533.031 793.1 536.831 789.1C540.731 785.2 542.681 779.15 542.681 770.95V767.2C539.681 770.5 536.031 773.05 531.731 774.85C527.431 776.55 522.781 777.4 517.781 777.4C507.081 777.4 498.631 774.45 492.431 768.55C486.331 762.65 483.281 753.8 483.281 742V700.9H502.031V739.6C502.031 746.7 503.631 752.05 506.831 755.65C510.131 759.15 514.781 760.9 520.781 760.9C527.481 760.9 532.781 758.85 536.681 754.75C540.681 750.65 542.681 744.7 542.681 736.9V700.9H561.431ZM624.231 776.65C622.031 778.45 619.331 779.8 616.131 780.7C613.031 781.6 609.731 782.05 606.231 782.05C597.431 782.05 590.631 779.75 585.831 775.15C581.031 770.55 578.631 763.85 578.631 755.05V683.2H597.381V701.5H618.831V716.5H597.381V754.6C597.381 758.5 598.331 761.5 600.231 763.6C602.231 765.6 604.981 766.6 608.481 766.6C612.681 766.6 616.181 765.5 618.981 763.3L624.231 776.65ZM708.642 700.9V781H690.792V770.65C687.692 774.45 683.842 777.3 679.242 779.2C674.742 781.1 669.742 782.05 664.242 782.05C656.442 782.05 649.442 780.35 643.242 776.95C637.142 773.55 632.342 768.75 628.842 762.55C625.442 756.35 623.742 749.15 623.742 740.95C623.742 732.75 625.442 725.6 628.842 719.5C632.342 713.3 637.142 708.5 643.242 705.1C649.442 701.7 656.442 700 664.242 700C669.442 700 674.192 700.9 678.492 702.7C682.892 704.5 686.692 707.15 689.892 710.65V700.9H708.642ZM666.342 766C673.242 766 678.942 763.7 683.442 759.1C687.942 754.5 690.192 748.45 690.192 740.95C690.192 733.45 687.942 727.4 683.442 722.8C678.942 718.2 673.242 715.9 666.342 715.9C659.442 715.9 653.742 718.2 649.242 722.8C644.842 727.4 642.642 733.45 642.642 740.95C642.642 748.45 644.842 754.5 649.242 759.1C653.742 763.7 659.442 766 666.342 766ZM827.524 700C837.624 700 845.624 702.95 851.524 708.85C857.424 714.65 860.374 723.4 860.374 735.1V781H841.624V737.5C841.624 730.5 840.074 725.25 836.974 721.75C833.874 718.15 829.424 716.35 823.624 716.35C817.324 716.35 812.274 718.45 808.474 722.65C804.674 726.75 802.774 732.65 802.774 740.35V781H784.024V737.5C784.024 730.5 782.474 725.25 779.374 721.75C776.274 718.15 771.824 716.35 766.024 716.35C759.624 716.35 754.524 718.4 750.724 722.5C747.024 726.6 745.174 732.55 745.174 740.35V781H726.424V700.9H744.274V711.1C747.274 707.5 751.024 704.75 755.524 702.85C760.024 700.95 765.024 700 770.524 700C776.524 700 781.824 701.15 786.424 703.45C791.124 705.65 794.824 708.95 797.524 713.35C800.824 709.15 805.074 705.9 810.274 703.6C815.474 701.2 821.224 700 827.524 700ZM877.584 700.9H896.334V781H877.584V700.9ZM887.034 687.7C883.634 687.7 880.784 686.65 878.484 684.55C876.184 682.35 875.034 679.65 875.034 676.45C875.034 673.25 876.184 670.6 878.484 668.5C880.784 666.3 883.634 665.2 887.034 665.2C890.434 665.2 893.284 666.25 895.584 668.35C897.884 670.35 899.034 672.9 899.034 676C899.034 679.3 897.884 682.1 895.584 684.4C893.384 686.6 890.534 687.7 887.034 687.7ZM959.644 700C969.744 700 977.844 702.95 983.944 708.85C990.044 714.75 993.094 723.5 993.094 735.1V781H974.344V737.5C974.344 730.5 972.694 725.25 969.394 721.75C966.094 718.15 961.394 716.35 955.294 716.35C948.394 716.35 942.944 718.45 938.944 722.65C934.944 726.75 932.944 732.7 932.944 740.5V781H914.194V700.9H932.044V711.25C935.144 707.55 939.044 704.75 943.744 702.85C948.444 700.95 953.744 700 959.644 700Z" fill="#2CCF8B"/>
<path d="M579.017 187.274C597.077 170.277 616.134 162.365 636.19 163.539C656.108 164.567 675.457 175.058 694.236 195.011L782.647 288.949L747.256 322.258L659.873 229.411C649.73 218.634 639.282 213.224 628.531 213.181C617.787 212.855 607.828 217.01 598.653 225.646C588.604 235.104 583.335 245.555 582.846 257.001C582.221 268.301 587.391 279.776 598.357 291.428L683.684 382.089L648.293 415.398L560.91 322.551C550.766 311.774 540.537 306.158 530.223 305.704C519.771 305.104 510.03 309.054 501 317.552C491.097 326.873 485.901 337.256 485.412 348.702C484.787 360.002 489.957 371.477 500.923 383.129L586.25 473.79L550.859 507.099L406.934 354.175L441.232 321.895L458.914 340.683C457.133 329.451 458.388 318.383 462.68 307.477C466.835 296.425 473.937 286.171 483.986 276.713C494.473 266.844 505.499 260.174 517.064 256.705C528.493 253.089 539.745 252.935 550.823 256.242C549.212 244.026 550.849 232.049 555.732 220.312C560.624 208.293 568.386 197.28 579.017 187.274Z" fill="#2CCF8B"/>
<path d="M658.789 225.334L748.781 320.952L683.242 382.634L595.355 289.252C584.131 277.327 578.862 265.56 579.546 253.953C580.09 242.197 585.542 231.443 595.903 221.693C605.362 212.79 615.61 208.486 626.646 208.781C637.693 208.785 648.407 214.303 658.789 225.334Z" fill="#B0FFDE"/>
<path d="M785.748 291.367L881.349 392.944C902.284 415.189 912.122 438.054 910.863 461.54C909.737 485.167 898.263 507.25 876.441 527.788C863.911 539.58 850.78 548.619 837.05 554.905C823.451 561.331 810.01 564.822 796.727 565.377L786.181 527.513C809.758 525.766 830.487 516.479 848.367 499.651C860.756 487.991 866.992 476.281 867.075 464.521C867.166 452.488 861.05 439.925 848.728 426.832L840.181 417.751C841.721 439.134 833.481 458.305 815.46 475.266C796.736 492.889 777.336 501.191 757.262 500.172C737.196 498.88 717.755 488.238 698.94 468.246L651.438 417.774L685.649 385.576L731.164 433.936C742.029 445.481 752.989 451.626 764.045 452.371C775.101 453.117 785.627 448.785 795.623 439.378C806.182 429.44 811.643 418.459 812.008 406.434C812.372 394.409 806.658 382.132 794.865 369.602L751.537 323.565L785.748 291.367Z" fill="#2CCF8B"/>
<rect x="673.048" y="392.229" width="120" height="4.00128" transform="rotate(-43.2637 673.048 392.229)" fill="white"/>
<rect x="679.331" y="301.147" width="21" height="78.0252" rx="10.5" transform="rotate(-43.2637 679.331 301.147)" fill="white"/>
</svg>
